<?xml version="1.0" standalone="no"?>
<!DOCTYPE svg PUBLIC "-//W3C//DTD SVG 20010904//EN"
 "http://www.w3.org/TR/2001/REC-SVG-20010904/DTD/svg10.dtd">
<svg version="1.0" xmlns="http://www.w3.org/2000/svg"
 width="1024.000000pt" height="1024.000000pt" viewBox="0 0 1024.000000 1024.000000"
 preserveAspectRatio="xMidYMid meet">
<metadata>
Created by potrace 1.14, written by Peter Selinger 2001-2017
</metadata>
<g transform="translate(0.000000,1024.000000) scale(0.100000,-0.100000)"
fill="#000000" stroke="none">
<path d="M0 5120 l0 -5120 5120 0 5120 0 0 5120 0 5120 -5120 0 -5120 0 0
-5120z m4640 2330 c0 -13 -7 -20 -20 -20 -13 0 -20 7 -20 20 0 13 7 20 20 20
13 0 20 -7 20 -20z m-340 -105 c0 -8 -7 -15 -15 -15 -8 0 -15 7 -15 15 0 8 7
15 15 15 8 0 15 -7 15 -15z m1910 -90 c0 -25 1 -25 85 -25 69 0 85 -3 85 -15
0 -12 16 -15 80 -15 79 0 80 0 80 -25 0 -25 1 -25 85 -25 l85 0 0 -30 0 -30
75 0 c73 0 75 -1 75 -25 0 -22 4 -24 58 -27 50 -3 57 -6 60 -25 3 -20 9 -23
48 -23 42 0 44 -1 44 -30 0 -29 2 -30 45 -30 41 0 45 -2 45 -25 0 -22 4 -25
35 -25 32 0 35 -2 35 -30 0 -28 3 -30 35 -30 31 0 35 -3 35 -25 0 -21 5 -25
30 -25 25 0 30 -4 30 -25 0 -22 4 -25 35 -25 31 0 35 -3 35 -26 0 -21 4 -25
20 -21 16 4 20 0 20 -19 0 -17 6 -24 19 -24 13 0 21 -8 23 -22 2 -15 11 -24
26 -26 14 -2 22 -10 22 -23 0 -12 7 -19 20 -19 15 0 20 -7 20 -25 0 -18 5 -25
20 -25 13 0 22 -9 26 -25 4 -16 13 -25 25 -25 15 0 19 -7 19 -31 0 -22 5 -32
20 -36 14 -4 20 -14 20 -34 0 -24 4 -29 25 -29 21 0 25 -5 25 -30 0 -25 4 -30
25 -30 24 0 25 -2 25 -70 0 -68 1 -70 25 -70 23 0 25 -4 25 -40 0 -29 4 -40
15 -40 12 0 15 -16 15 -85 0 -78 2 -85 20 -85 19 0 20 -7 20 -205 l0 -205 -25
0 c-23 0 -25 -4 -25 -45 0 -38 -3 -45 -20 -45 -17 0 -20 -7 -20 -50 0 -38 -4
-50 -15 -50 -10 0 -15 -10 -15 -30 0 -23 -4 -30 -20 -30 -15 0 -20 7 -20 29 0
17 4 33 10 36 6 3 10 24 10 46 0 33 3 39 21 39 20 0 20 4 18 260 -2 209 -5
260 -16 260 -8 0 -13 12 -13 30 0 23 -5 30 -19 30 -15 0 -21 8 -23 33 -2 24
-8 33 -25 35 -19 3 -23 9 -22 35 1 22 3 25 6 10 2 -12 11 -24 19 -27 10 -4 14
3 14 29 0 28 -4 35 -20 35 -17 0 -20 7 -20 40 0 23 -5 40 -11 40 -6 0 -9 6 -6
14 4 10 -2 16 -16 18 -14 2 -23 11 -25 26 -3 16 -10 22 -28 22 -21 0 -24 5
-24 34 0 26 -5 36 -19 41 -12 4 -18 12 -14 21 3 8 -1 14 -11 14 -10 0 -16 9
-16 25 l0 25 -165 0 c-158 0 -165 1 -165 20 0 19 7 20 140 20 l140 0 0 49 0
48 -40 7 c-37 6 -40 9 -46 46 -6 34 -10 40 -30 40 -17 0 -24 6 -24 19 0 17
-37 37 -49 26 -2 -3 1 -5 7 -5 7 0 12 -7 12 -15 0 -8 -6 -15 -14 -15 -10 0
-16 13 -18 38 -3 34 -6 37 -35 40 -41 4 -43 22 -3 22 17 0 30 4 30 9 0 4 -12
6 -26 3 -29 -5 -44 10 -44 46 0 18 -6 22 -31 22 -30 0 -59 19 -59 39 0 6 -16
11 -35 11 -32 0 -35 2 -35 30 0 29 -2 30 -45 30 -41 0 -45 2 -45 25 0 24 -3
25 -60 25 -57 0 -60 1 -60 25 0 24 -2 25 -69 25 -68 0 -70 1 -76 28 l-6 28
-85 -4 c-80 -4 -86 -3 -91 17 -5 19 -12 21 -79 21 -72 0 -74 1 -74 24 l0 24
-192 4 c-106 2 -196 -1 -199 -6 -4 -4 -10 -3 -13 3 -5 7 -41 11 -94 11 -58 0
-82 -3 -72 -10 28 -18 -3 -25 -98 -23 -71 2 -92 0 -77 -8 17 -8 19 -18 16 -60
-3 -48 -2 -51 18 -44 18 5 21 2 21 -24 0 -26 -4 -31 -25 -31 -16 0 -25 -6 -25
-15 0 -9 -9 -15 -25 -15 -18 0 -25 -5 -25 -20 0 -16 -7 -20 -35 -20 -28 0 -35
-4 -35 -20 0 -15 -7 -20 -25 -20 -18 0 -23 -4 -19 -15 5 -13 -16 -15 -155 -15
-136 0 -161 -2 -161 -15 0 -9 -9 -15 -25 -15 -16 0 -25 -6 -25 -15 0 -9 -9
-15 -25 -15 -19 0 -25 -5 -25 -21 0 -15 -4 -19 -16 -15 -11 4 -18 -1 -21 -14
-3 -11 -12 -20 -19 -20 -8 0 -14 -4 -14 -10 0 -5 -7 -10 -15 -10 -9 0 -15 -9
-15 -25 0 -22 -4 -25 -36 -25 -34 0 -35 -1 -29 -30 6 -29 5 -30 -29 -30 -29 0
-36 -4 -36 -20 0 -11 -7 -20 -15 -20 -8 0 -15 -7 -15 -15 0 -8 -7 -15 -16 -15
-9 0 -18 -9 -21 -20 -3 -11 -14 -20 -24 -20 -12 0 -19 -7 -19 -20 0 -15 -7
-20 -25 -20 -18 0 -25 -5 -25 -20 0 -13 -7 -20 -20 -20 -13 0 -20 -7 -20 -20
0 -11 -6 -20 -14 -20 -7 0 -16 9 -19 20 -4 15 -14 20 -37 20 -23 0 -33 5 -37
20 -4 16 -14 20 -43 20 -32 0 -39 4 -42 23 -3 21 -7 22 -128 25 -84 2 -127 7
-132 15 -5 8 5 13 35 17 39 5 42 7 47 40 4 27 10 36 28 38 14 2 22 10 22 23 0
14 9 21 30 26 25 4 30 10 30 34 0 27 3 29 40 29 39 0 40 1 40 34 0 31 3 34 38
40 20 3 49 6 65 6 22 0 27 4 27 25 0 22 -3 25 -25 19 -23 -6 -25 -4 -19 25 6
26 4 31 -14 31 -11 0 -20 -6 -19 -12 1 -46 -1 -48 -68 -48 -63 0 -65 -1 -65
-25 0 -22 -4 -25 -40 -25 -22 0 -40 -4 -40 -10 0 -5 -9 -10 -20 -10 -11 0 -20
-6 -20 -14 0 -8 -10 -16 -22 -18 -16 -2 -24 -11 -27 -28 -3 -23 -4 -24 -12 -5
-6 16 -8 17 -8 3 -1 -11 -11 -18 -33 -20 -21 -2 -33 -8 -33 -18 0 -10 -14 -17
-45 -20 -40 -4 -45 -8 -48 -32 -3 -25 -8 -28 -38 -28 -27 0 -34 -4 -34 -20 0
-11 -7 -20 -15 -20 -8 0 -19 -9 -25 -20 -9 -17 -21 -20 -91 -20 l-80 0 3 28
c2 15 9 27 18 28 35 2 40 5 40 24 0 16 7 20 30 20 25 0 30 4 30 25 0 20 5 25
25 25 18 0 25 5 25 20 0 16 7 20 30 20 20 0 30 5 30 15 0 9 9 15 21 15 12 0
23 8 26 20 4 14 14 20 34 20 22 0 29 5 29 20 0 11 7 20 15 20 8 0 15 6 15 14
0 10 16 17 45 22 39 5 45 10 45 30 0 18 5 24 23 24 42 0 66 12 69 34 2 16 11
22 41 24 32 3 37 7 37 28 0 22 4 24 45 24 41 0 45 2 45 25 0 24 3 25 55 25 52
0 55 1 55 25 0 23 4 24 63 27 56 3 62 5 65 26 3 20 9 22 68 22 57 0 64 2 64
20 0 18 7 20 60 20 53 0 60 2 60 20 0 18 7 20 58 20 31 0 94 3 140 7 69 5 82
9 82 24 0 9 6 20 13 22 6 3 227 6 490 6 l477 1 0 -25z m-167 -115 c-3 -11 -9
-20 -14 -20 -10 0 -12 24 -2 33 13 13 21 7 16 -13z m-2173 -20 c0 -13 -7 -20
-20 -20 -13 0 -20 7 -20 20 0 13 7 20 20 20 13 0 20 -7 20 -20z m2040 -120 c0
-15 7 -20 25 -20 14 0 25 6 25 13 0 8 2 9 8 1 4 -7 62 -14 150 -19 130 -7 142
-9 142 -26 0 -16 8 -19 50 -19 41 0 48 -3 43 -16 -4 -10 1 -17 16 -21 11 -3
21 -12 21 -19 0 -10 13 -14 40 -14 33 0 40 -3 40 -20 0 -14 7 -20 24 -20 15 0
26 -7 29 -20 3 -12 14 -20 26 -20 17 0 21 -6 22 -32 0 -18 3 -27 6 -20 4 10 8
10 21 0 12 -10 14 -10 8 0 -4 7 -1 12 8 12 11 0 16 -9 16 -30 0 -16 4 -30 10
-30 5 0 7 -6 4 -14 -4 -10 2 -16 18 -18 15 -2 22 -9 20 -20 -3 -17 6 -22 38
-19 11 1 16 -11 18 -41 3 -42 22 -81 22 -45 0 9 4 17 8 17 4 0 8 -21 7 -47 0
-42 3 -48 23 -51 18 -3 22 -10 22 -43 0 -33 -3 -39 -21 -39 -16 0 -20 -5 -17
-27 2 -20 8 -28 21 -26 11 0 23 -9 29 -23 6 -13 20 -24 30 -24 14 0 19 -6 16
-22 -2 -19 -10 -24 -45 -26 -38 -3 -43 -6 -43 -28 0 -20 -5 -24 -30 -24 -25 0
-30 -4 -30 -25 0 -21 -5 -25 -30 -25 -25 0 -30 -4 -30 -25 0 -21 -5 -25 -29
-25 -23 0 -30 -5 -33 -22 -2 -17 -11 -24 -30 -26 -22 -3 -28 -9 -28 -28 0 -19
-5 -24 -25 -24 -18 0 -25 -5 -25 -20 0 -15 -7 -20 -25 -20 -16 0 -25 -6 -25
-15 0 -8 -4 -15 -10 -15 -5 0 -10 -9 -10 -20 0 -15 -7 -20 -25 -20 -18 0 -25
-5 -25 -20 0 -15 -7 -20 -25 -20 -19 0 -25 -5 -25 -21 0 -12 -8 -23 -20 -26
-11 -3 -20 -14 -20 -24 0 -11 -7 -19 -16 -19 -9 0 -18 -9 -21 -20 -3 -11 -11
-20 -18 -20 -8 0 -15 -10 -17 -22 -2 -15 -11 -24 -25 -26 -16 -2 -24 -12 -29
-37 -6 -34 -23 -45 -71 -45 -18 0 -23 6 -23 25 0 18 -5 25 -20 25 -17 0 -19 5
-14 25 5 22 3 25 -20 25 -19 0 -26 5 -26 20 0 11 -7 20 -15 20 -8 0 -15 9 -15
20 0 13 -7 20 -20 20 -13 0 -20 7 -20 20 0 18 -16 25 -42 21 -13 -2 -9 27 5
32 6 3 -5 6 -25 6 -34 1 -38 4 -38 26 0 23 -4 25 -45 25 -32 0 -45 4 -45 14 0
8 10 17 23 19 12 2 -1 5 -30 6 -49 1 -52 3 -55 29 -3 25 -7 27 -50 30 -40 3
-48 6 -48 23 0 16 -7 19 -50 19 -47 0 -50 2 -50 25 0 24 -3 25 -55 25 -48 0
-55 2 -55 20 0 18 -7 20 -56 20 -51 0 -56 2 -51 20 5 18 0 20 -39 20 -40 0
-44 2 -44 25 0 14 -5 25 -10 25 -7 0 -7 7 0 20 8 15 17 19 31 15 15 -5 19 -2
19 14 0 12 7 21 15 21 8 0 15 9 15 20 0 13 7 20 20 20 13 0 20 7 20 20 0 16 7
20 30 20 32 0 41 16 13 23 -14 3 -10 8 15 18 17 7 32 19 32 26 0 7 7 13 15 13
8 0 15 7 15 15 0 8 7 15 15 15 8 0 15 7 15 15 0 8 9 15 20 15 15 0 20 7 20 25
0 18 5 25 20 25 11 0 20 7 20 15 0 8 9 15 20 15 13 0 20 7 20 20 0 16 7 20 30
20 l31 0 -3 73 c-3 70 -4 72 -30 75 -19 2 -28 10 -30 25 -2 14 -11 23 -25 25
-31 5 -33 52 -3 52 11 0 20 7 20 15 0 10 10 15 30 15 23 0 30 4 30 20 0 15 7
20 25 20 16 0 25 6 25 15 0 9 9 15 25 15 18 0 25 5 25 20 0 18 7 20 60 20 53
0 60 2 60 20 0 17 7 20 45 20 38 0 45 -3 45 -20z m-440 -256 c0 -34 1 -35 30
-29 27 6 30 4 30 -17 0 -13 3 -40 6 -60 5 -31 4 -38 -10 -38 -9 0 -16 -7 -16
-15 0 -8 -9 -15 -20 -15 -11 0 -20 -4 -20 -10 0 -5 -7 -10 -15 -10 -9 0 -15
-9 -15 -25 0 -21 -5 -25 -29 -25 -24 0 -30 -5 -34 -30 -4 -18 -13 -30 -22 -30
-8 0 -15 -7 -15 -15 0 -8 -9 -15 -20 -15 -11 0 -20 -7 -20 -15 0 -8 -7 -15
-15 -15 -8 0 -15 -9 -15 -20 0 -13 -7 -20 -20 -20 -13 0 -20 -7 -20 -20 0 -13
-7 -20 -20 -20 -13 0 -20 -7 -20 -20 0 -16 -7 -20 -30 -20 -23 0 -30 -4 -30
-20 0 -13 -7 -20 -20 -20 -13 0 -20 -7 -20 -20 0 -11 -7 -20 -15 -20 -11 0
-15 12 -15 49 0 40 3 50 20 54 12 3 20 14 20 26 0 16 6 21 25 21 15 0 25 6 25
15 0 8 9 20 20 27 11 7 20 18 20 25 0 7 9 13 20 13 11 0 23 7 26 15 4 8 15 15
25 15 17 0 19 9 19 100 l0 100 -125 0 c-118 0 -125 -1 -125 -20 0 -18 7 -20
80 -20 73 0 80 -2 80 -20 0 -13 7 -20 20 -20 16 0 20 -7 20 -35 0 -31 -3 -35
-26 -35 -23 0 -26 -3 -22 -25 4 -17 1 -25 -8 -25 -9 0 -14 11 -14 28 0 21 -2
24 -10 12 -5 -8 -10 -27 -10 -42 0 -16 -4 -28 -10 -28 -5 0 -10 5 -10 10 0 6
-6 10 -13 10 -14 0 -17 -13 -17 -62 0 -23 -4 -28 -25 -28 -14 0 -25 -4 -25
-10 0 -5 -4 -10 -10 -10 -5 0 -10 7 -10 15 0 9 -6 15 -12 14 -44 -5 -68 2 -68
21 0 14 -7 20 -21 20 -12 0 -23 8 -26 20 -3 11 -14 20 -24 20 -12 0 -19 7 -19
20 0 13 7 20 20 20 14 0 20 7 20 21 0 11 -4 17 -10 14 -5 -3 -10 3 -10 15 0
15 5 20 18 18 9 -2 16 -10 15 -16 -2 -7 3 -12 10 -12 8 0 14 7 14 15 0 8 -6
15 -14 15 -7 0 -13 7 -13 15 0 8 7 15 15 15 8 0 15 -4 15 -10 0 -17 19 -11 42
12 14 14 18 23 10 26 -7 2 -12 12 -12 23 0 14 7 19 30 19 25 0 30 4 30 25 0
18 5 25 20 25 11 0 20 5 20 10 0 6 7 10 16 10 10 0 14 6 10 15 -4 12 3 15 29
15 28 0 35 4 35 20 0 19 7 20 155 20 l155 0 0 -36z m1916 -133 c-4 -5 0 -12 6
-14 8 -3 6 -6 -4 -6 -10 -1 -18 6 -18 14 0 8 5 15 11 15 5 0 8 -4 5 -9z
m-2549 -117 c-3 -3 -12 -4 -19 -1 -8 3 -5 6 6 6 11 1 17 -2 13 -5z m-1105 -36
c3 -37 -6 -34 162 -37 55 0 96 -4 93 -8 -7 -6 -22 -7 -204 -11 -103 -2 -103
-2 -103 -27 0 -20 -5 -25 -25 -25 -18 0 -25 -5 -25 -19 0 -13 -8 -21 -22 -23
-15 -2 -24 -11 -26 -25 -2 -14 -11 -23 -25 -25 -15 -2 -21 -9 -19 -20 2 -11
-3 -18 -13 -18 -8 0 -15 -9 -15 -20 0 -13 -7 -20 -20 -20 -13 0 -20 -7 -20
-20 0 -13 -7 -20 -20 -20 -15 0 -20 -7 -20 -25 0 -20 -5 -25 -25 -25 -18 0
-25 -5 -25 -20 0 -13 -7 -20 -19 -20 -13 0 -21 -8 -23 -22 -2 -15 -10 -23 -23
-23 -15 0 -22 -10 -29 -43 -7 -31 -14 -42 -27 -42 -11 0 -19 -6 -19 -14 0 -7
-9 -16 -20 -19 -13 -3 -22 -17 -26 -36 -5 -24 -12 -31 -30 -31 -19 0 -24 -5
-24 -25 0 -20 -5 -25 -25 -25 -18 0 -25 -5 -25 -20 0 -11 -4 -20 -10 -20 -5 0
-10 -7 -10 -15 0 -17 -35 -55 -50 -55 -5 0 -10 -11 -10 -25 0 -18 -5 -25 -20
-25 -13 0 -20 -7 -20 -20 0 -13 -7 -20 -20 -20 -15 0 -20 -7 -20 -25 0 -18 -5
-25 -20 -25 -15 0 -20 -7 -20 -25 0 -20 -5 -25 -25 -25 -21 0 -25 -5 -25 -29
0 -24 -3 -28 -20 -24 -29 8 -29 73 -1 73 13 0 21 8 23 23 2 14 11 23 26 25 17
3 22 10 22 32 0 22 5 29 23 32 13 2 22 10 21 20 -1 10 8 19 22 22 15 4 24 14
24 26 0 11 7 20 15 20 8 0 15 7 15 15 0 9 7 18 15 21 8 4 15 14 15 24 0 11 10
20 25 24 18 5 25 13 25 31 0 20 5 25 25 25 21 0 25 5 25 30 0 25 4 30 25 30
20 0 25 6 31 35 5 28 11 35 29 35 18 0 21 4 17 25 -4 22 -1 25 22 25 20 0 26
5 26 21 0 32 19 59 40 59 15 0 20 7 20 25 0 16 6 25 15 25 8 0 15 7 15 15 0 8
7 15 16 15 9 0 18 9 21 20 3 11 14 20 24 20 13 0 19 7 19 24 0 18 6 26 23 28
12 2 21 9 19 17 -1 7 7 15 18 18 11 3 20 14 20 24 0 12 7 19 20 19 13 0 20 7
20 20 0 15 7 20 25 20 21 0 25 5 25 30 0 25 4 30 25 30 20 0 25 5 25 25 0 20
5 25 24 25 20 0 25 -6 28 -32z m650 -50 c-18 -18 -15 -31 5 -24 28 11 123 -4
123 -20 0 -8 10 -14 24 -14 28 0 42 -26 20 -34 -29 -11 -44 -6 -44 14 0 19 -5
21 -62 18 -41 -2 -62 -7 -61 -14 3 -17 -31 -6 -56 17 -11 11 -36 20 -58 21
l-38 1 45 7 c38 6 33 7 -38 8 -46 1 -81 -1 -79 -5 3 -5 -17 -8 -44 -8 -27 0
-49 3 -49 7 0 3 -3 13 -6 22 -5 14 13 16 162 16 131 0 165 -3 156 -12z m2838
-29 c0 -19 -4 -21 -37 -15 -21 3 -53 6 -70 6 -23 0 -33 5 -33 15 0 12 14 15
70 15 65 0 70 -2 70 -21z m-152 -41 c3 -15 -4 -18 -37 -18 -35 0 -41 3 -41 21
0 17 5 20 37 17 27 -2 39 -8 41 -20z m-3004 3 c3 -5 -2 -8 -11 -7 -10 0 -18
-4 -18 -11 0 -23 -11 -21 -11 2 0 25 28 36 40 16z m642 -2 c-6 9 -5 12 5 9 8
-3 13 -11 12 -17 -2 -6 8 -11 22 -11 16 0 25 6 25 15 0 12 14 15 65 15 l65 0
0 -35 c0 -24 5 -35 15 -35 8 0 15 -9 15 -20 0 -12 -5 -17 -14 -14 -9 4 -16 -6
-20 -30 -4 -22 -13 -36 -21 -36 -8 0 -15 -4 -15 -10 0 -5 -3 -9 -7 -9 -20 3
-27 -2 -14 -10 10 -7 5 -11 -18 -16 -17 -3 -31 -13 -31 -20 0 -15 -22 -25 -56
-25 -14 0 -22 -4 -19 -10 4 -6 -10 -10 -33 -10 -26 0 -42 5 -46 15 -3 8 -12
15 -21 15 -11 0 -15 11 -15 40 0 22 -4 40 -10 40 -5 0 -10 -6 -10 -14 0 -7 -9
-16 -20 -19 -19 -5 -21 -12 -18 -96 2 -50 4 -87 6 -82 2 5 38 7 80 4 100 -6
168 7 164 30 -2 11 4 17 18 17 13 0 20 7 20 20 0 14 7 20 21 20 26 0 55 26 36
33 -6 3 3 6 21 6 24 1 32 5 32 20 0 10 9 21 20 24 16 4 20 14 20 51 0 39 3 46
20 46 18 0 20 -7 20 -65 0 -63 -1 -65 -25 -65 -18 0 -25 -5 -25 -20 0 -11 -7
-20 -15 -20 -8 0 -15 -9 -15 -20 0 -14 -7 -20 -21 -20 -16 0 -20 -5 -16 -20 4
-15 0 -20 -14 -20 -13 0 -19 -7 -19 -21 0 -15 -5 -19 -15 -15 -11 4 -15 -1
-15 -18 0 -15 -7 -26 -20 -29 -15 -4 -20 -14 -20 -36 0 -17 -4 -31 -10 -31 -5
0 -10 5 -10 10 0 6 -9 10 -20 10 -16 0 -20 -7 -20 -35 0 -28 -4 -35 -20 -35
-13 0 -20 -7 -20 -20 0 -15 -7 -20 -26 -20 -19 0 -25 -4 -20 -15 3 -9 0 -15
-8 -15 -19 0 -46 -44 -46 -75 0 -20 -5 -25 -24 -25 -18 0 -25 -6 -28 -22 -2
-17 -9 -22 -25 -20 -19 3 -23 -2 -23 -22 0 -21 -5 -26 -26 -26 -25 0 -26 2
-21 38 3 20 3 31 0 25 -2 -7 -16 -13 -29 -13 -20 0 -24 5 -24 29 0 29 -1 30
-36 24 -36 -6 -37 -6 -32 25 l5 32 -112 0 c-93 0 -112 3 -112 15 0 18 -1 18
31 5 21 -7 26 -6 26 5 0 8 5 15 10 15 6 0 10 18 10 40 0 36 3 40 25 40 21 0
25 5 25 30 0 27 3 30 30 30 27 0 30 3 30 30 0 28 2 30 28 25 27 -4 28 -3 24
25 -4 25 -1 28 17 23 14 -3 21 -1 21 8 0 11 2 11 9 1 6 -10 10 -10 21 3 7 8
20 15 29 16 10 0 11 2 4 6 -19 7 -16 27 7 48 11 10 20 13 20 7 0 -7 5 -12 10
-12 15 0 12 19 -6 37 -13 14 -17 14 -25 2 -6 -10 -9 -4 -9 19 0 29 3 32 31 32
17 0 28 -4 24 -10 -3 -5 2 -10 11 -10 14 0 15 3 6 12 -7 7 -12 22 -12 35 0 20
5 23 39 23 l39 0 -11 30 c-10 25 -9 33 3 40 11 7 19 5 28 -7 6 -9 23 -19 37
-20 21 -3 25 0 25 21 0 19 -4 23 -20 19 -11 -3 -18 -9 -15 -13 3 -5 1 -11 -5
-15 -11 -7 -13 5 -4 29 3 9 11 13 18 9 6 -4 5 1 -3 10 -12 15 -11 17 13 17 20
0 26 5 26 21 0 19 2 20 17 8 14 -12 16 -12 9 0z m-323 -37 c16 -15 16 -17 -5
-39 -12 -13 -30 -23 -40 -23 -14 0 -18 8 -18 39 0 53 20 60 63 23z m125 -25
c3 -32 0 -39 -17 -44 -12 -3 -21 -12 -21 -19 0 -8 -7 -14 -15 -14 -9 0 -15 9
-15 25 0 16 6 25 15 25 8 0 15 7 15 15 0 9 -6 12 -15 9 -11 -5 -13 -2 -9 10 5
12 -1 16 -22 17 -24 2 -22 3 11 9 63 12 70 9 73 -33z m2455 23 c9 0 17 -7 17
-15 0 -20 -76 -21 -83 -1 -8 19 4 28 28 22 11 -3 28 -6 38 -6z m-2523 -125 c0
-20 -5 -25 -25 -25 -20 0 -25 5 -25 25 0 20 5 25 25 25 20 0 25 -5 25 -25z
m-52 -58 c3 -24 0 -27 -27 -27 -35 0 -35 -1 -21 35 13 35 44 30 48 -8z m3282
-8 c0 -17 -9 -19 -111 -19 -102 0 -111 -2 -116 -20 -5 -17 -14 -20 -59 -20
-47 0 -54 -2 -54 -20 0 -17 -7 -20 -50 -20 -43 0 -50 -3 -50 -20 0 -17 -7 -20
-39 -20 -35 0 -39 -3 -44 -30 -6 -29 -25 -37 -74 -31 -8 1 -13 -9 -13 -24 0
-20 -5 -25 -25 -25 -18 0 -25 -5 -25 -20 0 -11 -6 -20 -12 -20 -9 0 -8 -3 2
-10 20 -13 0 -32 -34 -32 -26 0 -31 -10 -27 -50 2 -11 -7 -20 -23 -24 -17 -4
-26 -13 -26 -25 0 -12 -7 -19 -20 -19 -13 0 -20 -7 -20 -19 0 -10 -9 -21 -20
-24 -15 -4 -20 -14 -20 -36 0 -17 -4 -31 -10 -31 -5 0 -10 -7 -10 -15 0 -8 -6
-15 -14 -15 -8 0 -16 -10 -18 -22 -2 -17 -9 -23 -25 -22 -18 0 -23 -5 -23 -23
0 -19 -5 -23 -30 -23 -24 0 -30 -4 -30 -21 0 -11 -4 -18 -9 -14 -6 3 -15 -4
-21 -16 -9 -16 -18 -19 -36 -15 -14 4 -24 2 -24 -4 0 -5 5 -10 10 -10 24 0 7
-28 -21 -34 -17 -3 -28 -10 -24 -16 3 -5 -6 -12 -20 -16 -14 -3 -25 -12 -25
-20 0 -8 -9 -14 -20 -14 -11 0 -23 -7 -26 -15 -4 -8 -12 -15 -19 -15 -7 0 -15
-7 -19 -15 -3 -8 -16 -15 -29 -15 -21 0 -25 -6 -30 -42 -4 -24 -12 -55 -19
-70 -12 -25 -18 -28 -65 -28 -40 0 -53 -4 -53 -15 0 -8 -11 -17 -24 -21 -15
-3 -27 -15 -30 -30 -4 -13 -13 -24 -21 -24 -8 0 -15 -7 -15 -15 0 -8 -5 -15
-11 -15 -16 0 -39 -26 -39 -44 0 -10 -9 -16 -25 -16 -18 0 -25 -5 -25 -20 0
-15 -7 -20 -25 -20 -14 0 -25 -4 -25 -10 0 -5 -7 -10 -15 -10 -8 0 -15 -9 -15
-20 0 -13 -7 -20 -20 -20 -13 0 -20 -7 -20 -20 0 -11 -8 -24 -17 -27 -24 -9
-60 -47 -68 -73 -3 -11 -13 -20 -21 -20 -8 0 -14 -9 -14 -19 0 -11 -6 -26 -14
-33 -7 -8 -17 -24 -21 -37 -4 -15 -12 -20 -22 -17 -9 4 -17 -1 -20 -14 -3 -11
-12 -20 -19 -20 -8 0 -14 -9 -14 -20 0 -11 -7 -20 -15 -20 -8 0 -14 -3 -14 -7
3 -21 -2 -33 -16 -33 -8 0 -15 -9 -15 -20 0 -11 -7 -20 -15 -20 -8 0 -15 -9
-15 -19 0 -10 -7 -21 -15 -25 -8 -3 -15 -15 -15 -26 0 -13 -7 -20 -20 -20 -16
0 -20 -7 -21 -37 0 -21 -3 -32 -6 -25 -10 25 -33 12 -33 -18 0 -23 -4 -30 -20
-30 -13 0 -20 -7 -20 -20 0 -11 -7 -23 -15 -26 -8 -4 -15 -14 -15 -24 0 -10
-7 -20 -15 -24 -8 -3 -15 -12 -15 -21 0 -8 -6 -15 -13 -15 -17 0 -40 -56 -35
-84 4 -19 1 -22 -18 -18 -19 3 -21 0 -17 -22 4 -21 2 -26 -16 -26 -14 0 -21
-6 -21 -20 0 -11 -4 -20 -10 -20 -5 0 -10 -7 -10 -16 0 -9 -9 -18 -20 -21 -20
-5 -23 -13 -35 -85 -3 -21 -12 -38 -19 -38 -7 0 -13 -7 -13 -15 0 -18 13 -20
20 -2 3 7 6 5 6 -5 1 -12 -10 -19 -33 -24 -31 -5 -60 -34 -36 -34 6 0 10 6 11
13 0 8 2 8 6 -2 5 -11 7 -11 14 0 7 11 9 11 9 -2 0 -11 -13 -19 -42 -24 -24
-4 -35 -10 -25 -12 23 -6 22 -23 -2 -23 -15 0 -21 -10 -26 -40 -5 -30 -11 -40
-26 -40 -10 0 -19 -7 -19 -15 0 -8 -7 -15 -15 -15 -8 0 -15 -9 -15 -20 0 -14
-7 -20 -24 -20 -18 0 -23 -5 -21 -22 1 -13 0 -15 -2 -5 -2 9 -9 18 -14 18 -5
1 -15 2 -21 3 -7 1 -15 -12 -18 -29 -4 -25 -10 -30 -38 -33 -23 -2 -32 -8 -28
-17 6 -16 -15 -25 -60 -25 -19 0 -34 -4 -34 -10 0 -13 -107 -13 -112 -1 -4 13
-155 18 -167 6 -6 -6 -64 -8 -153 -4 -79 4 -196 7 -260 8 l-118 1 0 25 c0 25
0 25 -95 25 -95 0 -95 0 -95 25 0 24 -2 25 -65 25 -51 0 -65 3 -65 15 0 12
-14 15 -69 15 -65 0 -70 2 -73 23 -2 18 -10 23 -45 25 -35 3 -43 7 -43 23 0
16 7 19 45 19 38 0 45 -3 45 -20 0 -18 7 -20 75 -20 68 0 75 -2 75 -20 0 -18
7 -20 65 -20 58 0 65 -2 65 -19 0 -18 6 -19 89 -14 83 5 90 4 102 -16 14 -22
39 -29 39 -11 0 6 46 9 123 8 113 -1 117 -2 47 -8 -71 -6 -69 -6 43 -8 108 -2
117 -1 117 17 0 15 11 19 61 25 34 3 77 6 95 6 19 0 34 5 34 11 0 5 5 7 10 4
6 -3 10 1 10 9 0 12 10 16 40 16 28 0 45 6 57 20 10 11 25 20 34 20 31 0 49
12 49 31 0 10 6 19 14 19 8 0 18 9 21 20 3 11 11 20 16 20 6 0 7 5 4 10 -3 6
1 10 10 10 8 0 18 7 21 15 4 8 13 15 21 15 17 0 52 39 53 58 0 6 11 12 25 12
20 0 25 5 25 25 0 23 4 25 45 25 41 0 45 2 45 25 0 21 5 25 30 25 24 0 30 4
30 21 0 11 6 27 14 35 17 16 30 19 21 4 -4 -6 6 -10 24 -10 21 0 29 4 25 13
-3 8 7 22 21 33 14 10 25 24 25 30 0 7 7 14 15 18 8 3 15 12 15 20 0 9 11 18
25 22 15 4 28 16 31 30 3 13 12 24 20 24 8 0 14 9 14 20 0 11 7 20 15 20 8 0
15 9 15 20 0 11 6 19 12 18 7 -2 14 7 16 20 2 12 10 22 18 22 8 0 14 9 14 19
0 13 8 21 23 23 12 2 20 7 19 12 -2 5 3 13 12 18 9 5 16 16 16 23 0 8 9 15 20
15 16 0 20 7 20 35 0 25 4 35 15 35 9 0 18 12 22 30 4 21 11 30 24 30 12 0 19
7 19 20 0 13 9 22 25 26 19 5 25 13 25 35 0 24 4 29 25 29 23 0 25 4 25 45 0
33 4 45 15 45 9 0 15 9 15 25 0 19 -6 25 -22 26 l-23 2 23 4 c14 3 22 12 22
24 0 12 7 19 20 19 16 0 20 7 20 30 0 24 4 30 21 30 17 0 20 5 17 25 -3 14 -1
25 3 25 5 0 9 17 10 38 1 38 15 95 19 77 1 -5 5 4 9 20 3 17 12 31 19 31 6 1
23 2 37 3 22 1 25 5 25 41 0 32 4 40 19 40 15 0 20 10 25 49 5 41 10 50 31 55
17 4 25 13 25 29 0 18 5 23 28 22 25 0 27 3 30 48 3 41 6 47 25 47 29 0 43 10
51 36 10 32 56 28 56 -4 0 -20 5 -23 28 -20 22 2 26 7 23 28 -1 14 -7 27 -11
30 -4 3 -11 19 -14 36 -6 29 -5 32 22 37 18 4 31 14 35 26 4 15 14 21 34 22
15 0 22 3 16 6 -24 9 -13 31 17 38 17 4 28 11 25 15 -7 12 30 31 41 22 5 -4 1
3 -9 14 -18 21 -17 22 18 28 26 5 35 12 35 26 0 17 7 20 40 20 33 0 40 3 40
20 0 15 7 20 25 20 26 0 28 5 25 58 -1 26 2 32 19 32 12 0 21 -4 21 -10 0 -15
37 -12 43 4 3 7 18 17 33 20 15 4 33 14 39 22 6 9 30 18 53 21 32 4 42 10 42
24 0 15 8 19 40 19 32 0 40 4 40 18 0 15 9 18 59 17 64 0 85 10 60 29 -15 10
-14 13 8 23 22 11 26 10 30 -7 9 -33 62 -24 75 11 4 11 15 15 37 11 24 -3 31
-1 31 12 0 20 39 36 86 36 24 0 34 5 34 15 0 12 13 15 60 15 53 0 60 2 60 20
0 18 8 20 98 22 123 4 142 1 142 -23z m-2510 -19 c0 -16 7 -20 35 -20 24 0 35
-5 35 -15 0 -11 12 -15 50 -15 43 0 50 -3 50 -20 0 -17 7 -20 45 -20 38 0 45
-3 45 -20 0 -17 7 -20 50 -20 43 0 50 -3 50 -19 0 -16 11 -21 63 -28 58 -7 62
-10 65 -35 3 -25 7 -28 43 -28 32 0 39 -3 39 -20 0 -15 7 -20 25 -20 18 0 25
-5 25 -20 0 -13 7 -20 20 -20 13 0 20 -7 20 -20 0 -13 7 -20 19 -20 11 0 21
-9 24 -21 3 -12 10 -18 16 -15 5 4 11 -4 13 -16 2 -15 11 -24 26 -26 20 -3 23
-8 18 -28 -6 -21 -3 -24 24 -24 23 0 30 -4 30 -20 0 -15 7 -20 25 -20 24 0 25
-3 25 -59 0 -54 -2 -60 -22 -63 -15 -2 -23 -10 -23 -23 0 -15 -8 -21 -32 -23
-29 -3 -33 -7 -33 -34 0 -21 -6 -31 -19 -35 -11 -3 -24 -18 -30 -34 -7 -19
-17 -29 -30 -29 -14 0 -21 -6 -21 -20 0 -13 -7 -20 -20 -20 -15 0 -20 -7 -20
-25 0 -18 -5 -25 -20 -25 -13 0 -20 -7 -20 -20 0 -11 -7 -23 -15 -26 -8 -4
-15 -17 -15 -30 0 -17 -6 -24 -20 -24 -13 0 -20 -7 -20 -20 0 -13 -7 -20 -20
-20 -13 0 -20 -7 -20 -20 0 -13 -7 -20 -20 -20 -16 0 -20 -7 -20 -35 0 -31 -3
-35 -25 -35 -21 0 -25 -5 -25 -29 0 -23 -5 -30 -22 -33 -17 -2 -24 -11 -26
-30 -2 -20 -9 -28 -23 -28 -15 0 -19 -7 -19 -35 0 -31 -3 -35 -25 -35 -21 0
-25 -5 -25 -30 0 -25 -4 -30 -25 -30 -22 0 -25 -4 -25 -35 0 -31 -3 -35 -25
-35 -21 0 -25 -5 -25 -30 0 -23 -4 -30 -20 -30 -16 0 -20 -7 -20 -35 0 -31 -3
-35 -25 -35 -20 0 -25 -5 -25 -25 0 -20 -5 -25 -25 -25 -22 0 -25 -4 -25 -35
0 -24 -5 -35 -15 -35 -8 0 -15 -7 -15 -15 0 -8 -7 -15 -15 -15 -9 0 -15 -9
-15 -25 0 -18 -5 -25 -20 -25 -16 0 -20 -7 -20 -30 0 -25 -4 -30 -24 -30 -19
0 -25 -6 -28 -27 -2 -20 -9 -29 -25 -31 -17 -3 -23 -10 -23 -28 0 -19 -5 -24
-26 -24 -14 0 -23 -4 -20 -9 3 -5 3 -23 0 -40 -5 -24 -12 -31 -30 -31 -20 0
-24 -5 -24 -30 0 -25 -4 -30 -25 -30 -20 0 -25 -5 -25 -25 0 -20 -5 -25 -25
-25 -21 0 -25 -5 -25 -30 0 -28 -3 -30 -34 -30 -28 0 -35 -4 -38 -22 -2 -19
-10 -24 -45 -26 -35 -3 -43 -7 -43 -23 0 -17 -7 -19 -80 -19 -73 0 -80 -2 -80
-20 0 -19 -7 -20 -95 -20 -78 0 -95 -3 -95 -15 0 -13 -29 -15 -200 -15 -193 0
-200 1 -200 20 0 19 -7 20 -100 20 -93 0 -100 1 -100 20 0 18 -7 20 -65 20
-58 0 -65 2 -65 20 0 17 -7 20 -40 20 -33 0 -40 3 -40 20 0 17 7 20 40 20 34
0 40 -3 40 -21 0 -20 4 -21 65 -17 58 3 65 2 65 -14 0 -16 6 -17 43 -13 93 13
112 17 120 28 6 9 10 9 14 0 6 -15 43 -17 43 -3 0 6 50 10 130 10 89 0 130 4
130 11 0 8 4 8 14 0 10 -8 16 -9 21 -1 3 5 15 10 26 10 16 0 19 -4 14 -22 -6
-17 -4 -20 9 -15 9 4 16 2 16 -3 0 -5 -10 -11 -22 -13 -13 -2 24 -4 82 -4
l105 1 -80 6 c-57 5 -69 7 -40 10 22 2 57 2 78 1 28 -2 37 1 37 13 0 13 13 16
66 16 63 0 66 1 62 23 -4 20 -1 22 35 18 27 -2 38 0 33 8 -4 6 -3 11 3 11 5 0
12 -6 14 -12 3 -7 6 -1 6 15 1 25 -13 38 -21 18 -1 -5 -12 -3 -22 5 -19 13
-18 14 10 14 22 0 36 8 52 30 13 17 27 30 33 30 14 0 33 20 42 43 4 10 11 15
17 12 5 -3 10 2 10 13 0 11 11 24 26 31 22 10 24 14 13 27 -10 12 -9 18 4 32
10 9 17 11 17 5 0 -6 -5 -13 -12 -15 -7 -3 -5 -12 8 -26 10 -12 22 -35 25 -50
6 -24 7 -23 8 10 0 20 6 40 11 43 6 3 10 15 10 26 0 26 18 24 23 -3 3 -17 5
-14 6 10 1 28 4 32 30 32 23 0 30 5 33 23 2 14 9 21 21 21 13 -1 17 6 17 28 0
25 3 29 20 25 17 -4 20 0 20 24 0 24 4 29 25 29 21 0 23 3 16 23 -11 30 -4 46
18 40 15 -4 17 1 13 26 -2 18 1 38 9 47 19 22 21 54 7 72 -10 12 -10 16 0 19
6 3 12 13 12 24 0 12 7 19 20 19 17 0 20 7 20 40 0 29 4 40 15 40 21 0 19 28
-2 33 -14 4 -12 5 5 6 18 1 22 7 22 36 0 30 3 35 23 35 12 0 46 3 75 6 50 7
52 6 53 -17 1 -17 3 -19 6 -7 2 10 16 21 30 24 21 6 24 11 21 36 -4 21 0 33
14 41 10 7 18 18 18 25 0 7 14 15 30 19 21 4 30 11 30 24 0 12 7 19 20 19 11
0 20 7 20 16 0 8 -4 12 -10 9 -22 -14 -8 11 17 29 14 11 23 14 19 8 -4 -7 -2
-12 3 -12 6 0 11 14 11 30 0 26 4 30 26 30 26 0 26 2 21 46 -3 28 -1 41 4 33
6 -10 10 -5 15 19 9 43 22 41 27 -5 3 -28 4 -23 5 19 2 56 3 57 26 48 21 -8
24 -6 28 18 5 39 -2 73 -13 66 -6 -3 -13 3 -16 15 -6 23 -32 28 -51 9 -8 -8
-10 -2 -5 26 3 20 2 36 -3 35 -5 -1 -26 -1 -46 0 -35 1 -38 3 -38 31 0 20 -5
30 -15 30 -8 0 -15 7 -15 15 0 11 -11 15 -40 15 -25 0 -40 5 -40 13 0 7 -14
12 -37 12 -32 0 -39 4 -41 23 -3 20 -9 23 -35 20 -28 -3 -32 0 -35 23 -3 24
-6 25 -49 23 -38 -2 -46 1 -50 17 -4 14 -14 19 -40 19 -30 0 -35 3 -30 20 4
17 0 20 -29 20 -30 0 -34 3 -34 25 l0 25 -105 -1 c-58 -1 -108 1 -112 5 -3 3
15 6 41 6 52 0 62 22 13 28 -21 3 -27 9 -27 28 0 15 -6 24 -15 24 -9 0 -15
-10 -15 -26 0 -21 -4 -25 -22 -22 -17 2 -24 11 -26 31 -3 23 0 27 22 27 22 0
26 4 26 30 0 25 4 30 25 30 20 0 25 5 25 25 0 18 5 25 20 25 13 0 20 7 20 20
0 13 7 20 20 20 15 0 20 7 20 25 0 18 5 25 20 25 11 0 20 6 20 14 0 7 10 16
21 19 16 4 20 11 16 26 -5 19 -1 21 49 21 47 0 54 -2 54 -20z m-820 -36 c0
-19 -5 -24 -25 -24 -28 0 -32 18 -13 50 15 24 38 9 38 -26z m93 9 c-7 -2 -19
-2 -25 0 -7 3 -2 5 12 5 14 0 19 -2 13 -5z m3260 -10 c-7 -2 -19 -2 -25 0 -7
3 -2 5 12 5 14 0 19 -2 13 -5z m-3403 -58 c0 -20 -5 -25 -25 -25 -20 0 -25 5
-25 25 0 20 5 25 25 25 20 0 25 -5 25 -25z m-58 -55 c4 -26 1 -30 -19 -30 -17
0 -23 6 -23 23 0 46 36 52 42 7z m-92 -54 c0 -3 -4 -8 -10 -11 -5 -3 -10 -1
-10 4 0 6 5 11 10 11 6 0 10 -2 10 -4z m50 -16 c0 -14 -7 -20 -24 -20 -19 0
-23 4 -19 20 3 11 14 20 24 20 12 0 19 -7 19 -20z m4080 -30 c0 -15 -7 -20
-25 -20 -18 0 -25 5 -25 20 0 15 7 20 25 20 18 0 25 -5 25 -20z m-4125 -25 c0
-14 -6 -19 -20 -17 -26 5 -29 8 -21 27 8 23 41 14 41 -10z m-47 -48 c3 -22 -1
-27 -17 -27 -15 0 -21 6 -21 23 0 46 33 49 38 4z m702 -12 c0 -20 -5 -25 -25
-25 -20 0 -25 5 -25 25 0 20 5 25 25 25 20 0 25 -5 25 -25z m-740 -41 c0 -19
-5 -24 -25 -24 -20 0 -25 5 -25 23 0 30 6 36 31 30 12 -3 19 -14 19 -29z m692
-19 c5 -22 2 -25 -23 -25 -24 0 -29 4 -29 25 0 20 5 25 24 25 17 0 25 -7 28
-25z m-757 -35 c11 -5 14 -9 7 -9 -7 -1 -17 -12 -22 -26 -5 -14 -14 -25 -20
-25 -5 0 -10 -7 -10 -15 0 -8 7 -15 15 -15 8 0 15 7 15 15 0 15 19 17 122 8
55 -5 73 -22 25 -24 -12 0 -17 -3 -10 -5 9 -4 9 -13 2 -31 -5 -15 -7 -34 -4
-42 6 -14 7 -14 16 2 8 13 22 17 62 16 29 -1 42 -4 30 -6 -13 -2 -23 -9 -23
-15 0 -6 9 -8 19 -5 15 3 21 -1 23 -17 2 -15 10 -21 28 -22 14 -1 46 -4 72 -8
l47 -7 7 -60 c5 -49 10 -59 25 -59 15 0 19 8 19 40 0 36 3 40 24 40 19 0 25 7
30 35 6 29 11 35 31 35 22 0 25 5 25 35 0 28 4 35 20 35 13 0 20 7 20 20 0 16
7 20 31 20 26 0 30 -3 27 -22 -2 -19 -8 -22 -30 -20 l-28 3 -1 -83 c0 -46 -1
-103 -1 -128 0 -51 -14 -66 -39 -44 -16 14 -17 10 -12 -65 l6 -81 -27 0 c-23
0 -26 -4 -26 -35 0 -28 -4 -35 -20 -35 -15 0 -20 -7 -20 -25 0 -19 -5 -25 -23
-25 -18 0 -22 -5 -22 -32 0 -26 -4 -34 -22 -36 -15 -2 -23 -11 -25 -30 -2 -19
-9 -27 -23 -27 -16 0 -19 -6 -17 -27 3 -24 0 -28 -22 -28 -20 0 -25 -6 -28
-27 -3 -24 -7 -28 -30 -25 -22 2 -28 -1 -28 -18 0 -11 -4 -20 -10 -20 -5 0
-10 -7 -10 -15 0 -9 -9 -15 -24 -15 -13 0 -26 -7 -30 -15 -3 -8 -1 -15 5 -15
6 0 7 -4 4 -10 -3 -5 -24 -10 -45 -10 -32 0 -39 -4 -42 -22 -4 -30 -57 -38
-65 -8 -6 23 -43 28 -43 5 0 -8 9 -15 19 -15 10 0 21 -7 25 -15 4 -12 -4 -15
-44 -15 -47 0 -50 -2 -50 -26 0 -20 -4 -25 -21 -22 -12 2 -28 13 -37 26 -14
21 -13 22 17 28 24 5 31 12 31 30 0 13 5 24 10 24 6 0 10 7 10 15 0 8 7 15 15
15 10 0 15 10 15 30 0 25 4 30 25 30 21 0 25 5 25 30 0 23 4 30 20 30 16 0 20
7 20 30 0 23 4 30 20 30 14 0 25 12 37 40 11 25 24 40 35 40 13 0 18 8 18 29
0 23 5 30 23 33 14 2 23 11 25 26 2 12 9 22 17 22 8 0 11 7 8 21 -4 15 0 22
16 26 12 3 21 13 21 24 0 14 7 19 25 19 20 0 25 5 25 25 0 20 5 25 25 25 22 0
25 4 25 35 0 31 3 35 25 35 20 0 25 5 25 25 0 20 -5 25 -25 25 -18 0 -25 -5
-25 -20 0 -17 -7 -20 -47 -22 -27 -1 -55 -2 -63 -4 -8 -1 -28 -3 -45 -4 -18
-1 -23 -4 -12 -7 9 -2 17 -9 17 -14 0 -6 -4 -7 -10 -4 -5 3 -10 1 -10 -4 0 -6
-9 -11 -20 -11 -11 0 -20 -7 -20 -15 0 -8 -8 -16 -17 -16 -17 -1 -17 -2 0 -6
19 -5 19 -40 0 -36 -6 1 -14 -9 -17 -22 -7 -29 -24 -32 -41 -9 -6 9 -18 15
-25 12 -10 -3 -9 -8 4 -20 22 -22 20 -45 -4 -51 -12 -3 -20 -14 -20 -26 0 -12
-4 -21 -9 -21 -5 0 -22 -5 -38 -11 -28 -11 -28 -11 -5 -20 33 -13 28 -39 -7
-39 -33 0 -45 -19 -23 -36 12 -9 12 -15 2 -33 -7 -13 -17 -20 -26 -17 -11 4
-14 -9 -14 -70 0 -48 -4 -73 -10 -69 -6 4 -10 -8 -10 -28 0 -32 -3 -35 -37
-41 -75 -12 -73 -14 -73 74 0 98 16 180 36 180 10 0 14 13 14 49 0 61 -16 108
-40 116 -13 4 -20 20 -25 60 -4 38 -11 55 -21 55 -8 0 -14 7 -14 15 0 10 -10
15 -30 15 -19 0 -30 -5 -30 -14 0 -7 -9 -16 -20 -19 -16 -4 -20 -14 -20 -51 0
-34 -4 -46 -15 -46 -14 0 -16 -8 -19 -75 -1 -13 -9 -21 -24 -23 -20 -3 -22 -9
-22 -65 0 -98 -11 -167 -26 -167 -10 0 -14 28 -16 117 -3 103 -5 118 -20 121
-15 3 -18 -4 -18 -47 0 -41 -3 -51 -16 -51 -14 0 -15 7 -10 38 3 20 6 45 6 55
0 11 8 17 24 17 15 0 26 7 29 20 3 11 12 20 21 20 12 0 16 10 16 40 0 33 3 40
20 40 17 0 20 7 20 50 0 43 3 52 23 59 12 5 21 11 20 15 -8 19 -1 36 16 36 17
0 21 7 36 63 2 4 3 18 4 32 1 20 6 25 29 25 19 0 30 7 37 23 6 13 18 21 30 20
11 -1 14 0 7 3 -6 3 -10 10 -6 15 3 5 0 9 -6 9 -6 0 -10 12 -8 28 3 24 7 27
46 30 28 2 42 8 42 18 0 9 11 14 30 14 30 0 41 -14 18 -23 -8 -3 -6 -6 5 -6
12 -1 17 7 17 24 0 19 -4 23 -17 18 -11 -4 -14 -3 -9 5 4 7 2 10 -7 6 -8 -3
-20 2 -27 11 -11 13 -9 15 13 15 43 0 87 12 86 24 -4 37 6 43 46 26z m3145 -5
c0 -8 7 -15 15 -15 12 0 15 -16 15 -85 0 -78 -2 -85 -20 -85 -15 0 -20 7 -20
26 0 14 -4 23 -9 19 -5 -3 -12 -1 -16 5 -3 6 1 13 9 16 24 9 21 54 -3 54 -11
0 -23 -4 -26 -10 -3 -5 -1 -10 4 -10 6 0 11 -4 11 -10 0 -5 -4 -10 -9 -10 -15
0 -61 -46 -61 -60 0 -10 -3 -10 -15 0 -12 10 -15 10 -15 -4 0 -10 -9 -16 -25
-16 -18 0 -25 -5 -25 -20 0 -11 -5 -20 -11 -20 -6 0 -18 -7 -27 -16 -10 -11
-17 -13 -20 -5 -2 6 -10 11 -18 11 -8 0 -14 10 -14 25 0 16 6 25 15 25 8 0 15
8 15 19 0 10 8 21 19 24 10 2 24 18 32 36 8 17 20 31 26 31 7 0 13 6 13 14 0
8 9 18 20 21 11 4 32 17 47 31 30 28 93 34 93 9z m-2432 -18 c3 -12 -4 -20
-17 -24 -12 -3 -21 -12 -21 -19 0 -8 -10 -14 -25 -14 -14 0 -25 5 -25 10 0 6
9 10 20 10 16 0 20 7 20 31 0 26 3 30 22 27 13 -2 24 -11 26 -21z m3562 -72
c0 -20 -5 -25 -25 -25 -26 0 -29 7 -19 34 10 27 44 20 44 -9z m-5477 -152 c7
-12 -7 -86 -15 -84 -28 5 -38 -1 -38 -25 0 -21 -4 -25 -22 -22 -13 2 -22 6
-20 11 1 4 2 21 2 37 0 25 4 30 25 30 21 0 25 5 25 30 0 23 5 30 19 30 11 0
22 -3 24 -7z m3957 -158 l0 -95 -69 0 c-94 0 -128 -8 -134 -32 -3 -12 -10 -17
-17 -13 -7 4 -14 -2 -17 -14 -3 -12 -9 -21 -14 -21 -5 0 -9 -7 -9 -15 0 -10
-10 -15 -30 -15 -27 0 -30 3 -30 34 0 21 6 36 15 40 8 3 15 12 15 21 0 8 6 15
13 15 7 0 23 11 35 25 12 14 26 25 32 25 5 0 10 7 10 15 0 8 6 15 14 15 7 0
16 9 19 20 3 11 12 20 21 20 9 0 16 7 16 15 0 9 9 15 21 15 12 0 23 8 26 20 4
16 14 20 44 20 l39 0 0 -95z m1520 65 c0 -15 -7 -20 -25 -20 -18 0 -25 5 -25
20 0 15 7 20 25 20 18 0 25 -5 25 -20z m-5580 -74 c0 -28 -4 -35 -22 -38 -18
-2 -24 -11 -26 -35 -2 -25 -8 -33 -22 -33 -14 0 -20 -9 -22 -37 -2 -31 -7 -39
-25 -41 -18 -3 -23 -10 -23 -33 0 -24 -4 -29 -25 -29 -22 0 -25 -4 -25 -35 0
-28 -4 -35 -20 -35 -18 0 -20 -7 -20 -55 0 -42 -3 -55 -15 -55 -12 0 -15 -19
-15 -115 0 -70 4 -115 10 -115 6 0 10 -22 10 -50 0 -38 4 -50 15 -50 10 0 15
-10 15 -30 0 -23 4 -30 20 -30 16 0 20 -7 20 -30 0 -22 4 -28 15 -24 11 5 15
-1 15 -25 0 -26 4 -31 25 -31 18 0 25 -5 25 -20 0 -15 7 -20 25 -20 20 0 25
-5 25 -25 0 -18 5 -25 20 -25 11 0 20 -4 20 -10 0 -5 6 -9 13 -7 6 1 11 -4 10
-10 -2 -7 6 -13 17 -13 13 0 20 -7 20 -20 0 -15 7 -20 25 -20 16 0 25 -6 25
-15 0 -11 11 -15 40 -15 22 0 40 -4 40 -10 0 -5 9 -10 20 -10 16 0 20 -7 20
-35 l0 -35 -60 0 c-53 0 -60 2 -60 20 0 17 -7 20 -40 20 -33 0 -40 3 -40 20 0
13 -7 20 -20 20 -11 0 -20 7 -20 15 0 9 -9 15 -24 15 -37 0 -56 10 -56 31 0
12 -7 19 -20 19 -13 0 -20 7 -20 20 0 30 -38 26 -50 -6 -13 -34 -13 -34 14
-34 19 0 26 -7 31 -30 4 -16 13 -30 21 -30 8 0 14 -7 14 -15 0 -8 9 -15 21
-15 11 0 18 -4 15 -9 -3 -5 1 -12 10 -15 8 -3 12 -10 9 -16 -3 -5 3 -10 14
-10 15 0 21 -6 21 -24 0 -28 25 -54 33 -34 3 7 6 -2 6 -20 1 -21 7 -35 19 -40
22 -9 27 -32 7 -32 -8 0 -15 -9 -15 -20 0 -13 7 -20 20 -20 15 0 20 -7 20 -25
0 -16 6 -25 15 -25 8 0 15 -7 15 -15 0 -10 11 -15 35 -15 31 0 35 -3 35 -25 0
-23 4 -25 45 -25 l45 0 0 -45 c0 -38 -3 -45 -20 -45 -15 0 -20 7 -20 25 0 20
-5 25 -25 25 -18 0 -25 5 -25 19 0 15 -10 20 -55 26 -45 5 -55 10 -55 26 0 16
-7 19 -40 19 -36 0 -40 3 -40 25 0 21 -5 25 -30 25 -20 0 -30 5 -30 15 0 8 -9
15 -20 15 -13 0 -20 7 -20 20 0 13 -7 20 -20 20 -11 0 -20 7 -20 15 0 8 -7 15
-15 15 -8 0 -15 9 -15 20 0 11 -9 25 -20 32 -11 7 -20 18 -20 25 0 6 -10 13
-22 15 -22 3 -23 8 -26 96 -3 90 -3 92 -27 92 -25 0 -25 1 -25 95 l0 95 30 0
c23 0 30 5 30 19 0 10 -7 21 -15 25 -9 3 -15 18 -15 36 0 20 -5 30 -15 30 -13
0 -15 26 -15 174 0 173 0 175 23 178 19 3 22 10 25 61 3 49 6 57 22 57 16 0
20 7 20 30 0 25 4 30 24 30 18 0 25 7 29 29 4 17 14 30 26 34 16 4 21 13 21
41 0 29 4 36 20 36 16 0 20 7 20 36 0 33 2 36 25 32 22 -5 25 -2 25 23 0 22 5
29 20 29 16 0 20 -7 20 -34z m4230 30 c0 -3 -4 -8 -10 -11 -5 -3 -10 -1 -10 4
0 6 5 11 10 11 6 0 10 -2 10 -4z m-4345 -16 c3 -6 -1 -7 -9 -4 -18 7 -21 14
-7 14 6 0 13 -4 16 -10z m5215 -100 c0 -20 -5 -30 -15 -30 -10 0 -15 10 -15
30 0 20 5 30 15 30 10 0 15 -10 15 -30z m-5297 -37 c-7 -2 -19 -2 -25 0 -7 3
-2 5 12 5 14 0 19 -2 13 -5z m5265 -16 c2 -12 -3 -17 -17 -17 -12 0 -21 6 -21
13 0 31 32 34 38 4z m-2141 -19 c-3 -7 -5 -2 -5 12 0 14 2 19 5 13 2 -7 2 -19
0 -25z m1023 -23 c0 -8 -7 -15 -15 -15 -9 0 -12 6 -9 15 4 8 10 15 15 15 5 0
9 -7 9 -15z m1080 0 c0 -8 -7 -15 -15 -15 -8 0 -15 7 -15 15 0 8 7 15 15 15 8
0 15 -7 15 -15z m-1873 -57 c-3 -7 -5 -2 -5 12 0 14 2 19 5 13 2 -7 2 -19 0
-25z m-307 12 c0 -5 -5 -10 -11 -10 -5 0 -7 5 -4 10 3 6 8 10 11 10 2 0 4 -4
4 -10z m767 -44 c1 -1 0 -12 -4 -24 -4 -17 -13 -22 -36 -22 -32 0 -67 -24 -67
-47 0 -7 -4 -13 -10 -13 -5 0 -10 -9 -10 -20 0 -13 -7 -20 -20 -20 -11 0 -20
-4 -20 -10 0 -5 -7 -10 -15 -10 -8 0 -15 -9 -15 -20 0 -11 -4 -20 -10 -20 -5
0 -10 -3 -9 -7 1 -5 -2 -18 -6 -30 -8 -26 -35 -31 -35 -8 0 8 -9 15 -20 15
-13 0 -20 7 -20 20 0 13 7 20 20 20 11 0 20 7 20 15 0 8 5 15 10 15 6 0 10 7
10 15 0 8 7 15 15 15 8 0 15 7 15 15 0 8 4 15 9 15 5 0 11 9 14 20 3 11 12 20
21 20 9 0 16 7 16 15 0 8 6 15 13 15 6 1 21 12 32 25 17 21 26 24 60 18 22 -3
41 -6 42 -7z m1323 -6 c0 -11 -7 -20 -15 -20 -13 0 -14 4 -5 20 6 11 13 20 15
20 3 0 5 -9 5 -20z m-5520 -20 c0 -13 -7 -20 -20 -20 -19 0 -27 20 -13 33 13
14 33 6 33 -13z m4155 -65 c0 -11 -8 -21 -17 -23 -14 -3 -18 3 -18 23 0 20 4
26 18 23 9 -2 17 -12 17 -23z m-2845 -25 c0 -16 -4 -30 -10 -30 -5 0 -10 14
-10 30 0 17 5 30 10 30 6 0 10 -13 10 -30z m-32 -63 c2 -19 -1 -27 -12 -27
-11 0 -16 -9 -16 -30 0 -23 -4 -30 -20 -30 -16 0 -20 7 -20 30 0 23 4 30 20
30 16 0 20 7 20 31 0 38 24 35 28 -4z m2860 16 c-10 -2 -18 -11 -18 -19 0 -8
-7 -14 -15 -14 -18 0 -20 26 -2 33 6 3 21 5 32 5 17 0 17 -1 3 -5z m-544 -18
c3 -8 1 -15 -4 -15 -6 0 -10 7 -10 15 0 8 2 15 4 15 2 0 6 -7 10 -15z m-2236
-66 c2 -20 -2 -28 -17 -32 -18 -4 -21 -1 -21 30 0 27 4 34 18 31 10 -2 18 -14
20 -29z m-1358 -49 c0 -15 -7 -20 -25 -20 -18 0 -25 5 -25 20 0 15 7 20 25 20
18 0 25 -5 25 -20z m1200 -10 c0 -23 -4 -30 -20 -30 -14 0 -20 7 -20 23 0 27
7 37 27 37 8 0 13 -12 13 -30z m222 14 c12 -11 -5 -44 -23 -44 -14 0 -19 7
-19 25 0 18 5 25 18 25 10 0 21 -3 24 -6z m106 -66 c3 -15 -4 -18 -47 -18 -45
0 -51 3 -51 21 0 18 5 20 47 17 36 -2 49 -7 51 -20z m-386 -17 c24 -23 18 -54
-9 -49 -12 2 -19 14 -21 36 -4 37 1 39 30 13z m108 -5 c0 -17 -27 -29 -36 -15
-3 6 -3 13 0 16 3 4 6 1 6 -6 0 -7 5 -9 10 -6 6 4 8 11 5 16 -4 5 -1 9 4 9 6
0 11 -6 11 -14z m390 -16 c0 -16 -7 -20 -35 -20 -24 0 -35 5 -35 14 0 8 -6 17
-12 19 -7 3 8 6 35 6 41 1 47 -2 47 -19z m1010 -135 c0 -96 -3 -115 -15 -115
-11 0 -15 11 -15 40 l0 40 -40 0 -40 0 0 40 0 40 -40 0 c-39 0 -40 1 -40 35
l0 35 95 0 95 0 0 -115z m-1542 63 c3 -13 -3 -18 -22 -18 -20 0 -26 5 -26 21
0 15 5 20 22 17 13 -2 24 -11 26 -20z m616 -3 c3 -9 -1 -18 -10 -22 -19 -7
-39 11 -30 26 10 16 33 13 40 -4z m1873 -47 c-3 -7 -5 -2 -5 12 0 14 2 19 5
13 2 -7 2 -19 0 -25z m-2537 -3 c0 -20 -5 -25 -25 -25 -18 0 -25 5 -25 18 0
10 3 22 7 25 3 4 15 7 25 7 13 0 18 -7 18 -25z m1390 -15 l0 -40 -40 0 -40 0
0 40 0 40 40 0 40 0 0 -40z m-870 0 c0 -13 -7 -20 -20 -20 -19 0 -27 20 -13
33 13 14 33 6 33 -13z m108 -7 c-2 -10 -12 -18 -23 -18 -11 0 -21 8 -23 18 -3
13 3 17 23 17 20 0 26 -4 23 -17z m-1688 -33 c0 -13 -7 -20 -20 -20 -13 0 -20
7 -20 20 0 13 7 20 20 20 13 0 20 -7 20 -20z m1540 -30 c0 -13 -7 -20 -20 -20
-13 0 -20 7 -20 20 0 13 7 20 20 20 13 0 20 -7 20 -20z m100 -5 c0 -18 -5 -25
-19 -25 -11 0 -23 5 -26 10 -11 18 3 40 25 40 15 0 20 -7 20 -25z m880 -29 c0
-29 3 -81 6 -115 l7 -61 38 0 c39 0 39 0 39 40 0 35 3 40 23 39 16 -1 17 -3 5
-6 -11 -3 -18 -17 -20 -41 -3 -35 -5 -37 -40 -40 -35 -3 -37 -5 -40 -40 -3
-35 -5 -37 -40 -40 -34 -3 -37 -6 -41 -40 l-4 -37 -1 43 c-2 36 -5 42 -24 43
-17 1 -19 2 -5 6 11 3 17 14 17 33 0 19 -6 30 -17 33 -15 4 -14 5 3 6 18 1 22
9 28 62 3 34 6 86 6 115 0 53 0 54 30 54 30 0 30 -1 30 -54z m-1510 19 c0 -20
-5 -25 -25 -25 -20 0 -25 5 -25 25 0 20 5 25 25 25 20 0 25 -5 25 -25z m4000
5 c0 -5 -2 -10 -4 -10 -3 0 -8 5 -11 10 -3 6 -1 10 4 10 6 0 11 -4 11 -10z
m-2090 -4 c0 -2 -8 -10 -17 -17 -16 -13 -17 -12 -4 4 13 16 21 21 21 13z
m-1430 -51 c0 -16 -6 -25 -15 -25 -9 0 -15 9 -15 25 0 16 6 25 15 25 9 0 15
-9 15 -25z m-540 -26 c0 -24 -3 -30 -16 -25 -9 3 -18 6 -20 6 -2 0 -4 11 -4
25 0 18 5 25 20 25 16 0 20 -7 20 -31z m645 10 c9 -26 5 -30 -23 -22 -13 3
-22 13 -22 24 0 26 37 25 45 -2z m3265 1 c0 -5 -4 -10 -10 -10 -5 0 -10 5 -10
10 0 6 5 10 10 10 6 0 10 -4 10 -10z m-3420 -38 c0 -27 -15 -52 -32 -52 -4 0
-8 11 -8 25 0 14 5 25 10 25 6 0 10 7 10 15 0 8 5 15 10 15 6 0 10 -13 10 -28z
m3480 18 c0 -5 -4 -10 -10 -10 -5 0 -10 5 -10 10 0 6 5 10 10 10 6 0 10 -4 10
-10z m78 -1 c-2 -6 -8 -10 -13 -10 -5 0 -11 4 -13 10 -2 6 4 11 13 11 9 0 15
-5 13 -11z m-2141 -21 c-3 -8 -6 -5 -6 6 -1 11 2 17 5 13 3 -3 4 -12 1 -19z
m1953 12 c0 -5 -4 -10 -10 -10 -5 0 -10 5 -10 10 0 6 5 10 10 10 6 0 10 -4 10
-10z m-3906 -18 c10 -17 -7 -52 -25 -52 -14 0 -19 7 -19 30 0 23 5 30 19 30
11 0 22 -4 25 -8z m636 -15 c0 -13 -3 -26 -6 -30 -12 -12 -34 6 -34 29 0 17 6
24 20 24 14 0 20 -7 20 -23z m3230 -1 c0 -11 -19 -15 -25 -6 -3 5 1 10 9 10 9
0 16 -2 16 -4z m120 -21 c0 -8 -4 -15 -10 -15 -5 0 -10 7 -10 15 0 8 5 15 10
15 6 0 10 -7 10 -15z m-80 -5 c0 -5 -5 -10 -11 -10 -5 0 -7 5 -4 10 3 6 8 10
11 10 2 0 4 -4 4 -10z m-100 -10 c0 -5 -4 -10 -10 -10 -5 0 -10 5 -10 10 0 6
5 10 10 10 6 0 10 -4 10 -10z m-105 -10 c3 -5 1 -10 -4 -10 -6 0 -11 5 -11 10
0 6 2 10 4 10 3 0 8 -4 11 -10z m-3115 -23 c0 -10 -4 -16 -9 -12 -12 7 -31
-26 -31 -54 0 -12 -7 -21 -15 -21 -9 0 -15 9 -15 25 0 16 6 25 15 25 10 0 15
10 15 28 0 21 5 28 20 28 13 0 20 -7 20 -19z m-100 -2 c0 -8 -7 -15 -15 -15
-16 0 -20 12 -8 23 11 12 23 8 23 -8z m138 -8 c2 -10 -3 -17 -12 -17 -10 0
-16 9 -16 21 0 24 23 21 28 -4z m-678 -12 c0 -18 -5 -25 -20 -25 -15 0 -20 7
-20 25 0 18 5 25 20 25 15 0 20 -7 20 -25z m1876 9 c-3 -9 -6 -21 -6 -27 0 -8
-3 -8 -10 -1 -12 12 -3 44 12 44 6 0 7 -7 4 -16z m1819 6 c3 -5 1 -10 -4 -10
-6 0 -11 5 -11 10 0 6 2 10 4 10 3 0 8 -4 11 -10z m266 -13 c-1 -12 -15 -9
-19 4 -3 6 1 10 8 8 6 -3 11 -8 11 -12z m-3463 -35 c3 -17 -2 -22 -17 -22 -14
0 -21 6 -21 18 0 38 33 41 38 4z m59 -14 c-3 -7 -5 -2 -5 12 0 14 2 19 5 13 2
-7 2 -19 0 -25z m3251 4 c2 -7 -3 -12 -12 -12 -9 0 -16 7 -16 16 0 17 22 14
28 -4z m92 3 c0 -8 -4 -15 -10 -15 -5 0 -10 7 -10 15 0 8 5 15 10 15 6 0 10
-7 10 -15z m410 -5 c0 -5 -7 -10 -15 -10 -8 0 -15 5 -15 10 0 6 7 10 15 10 8
0 15 -4 15 -10z m-670 -20 c0 -5 -4 -10 -10 -10 -5 0 -10 5 -10 10 0 6 5 10
10 10 6 0 10 -4 10 -10z m-3580 -35 c0 -35 0 -35 45 -35 41 0 45 -2 45 -25 0
-25 1 -25 80 -25 47 0 80 -4 80 -10 0 -5 7 -10 15 -10 8 0 15 7 15 16 0 8 5
12 10 9 6 -3 10 -26 10 -51 0 -37 -3 -44 -20 -44 -19 0 -22 4 -24 39 -1 11
-19 14 -84 12 -77 -2 -82 -1 -82 18 0 19 -6 21 -55 21 l-55 0 0 40 c0 28 -4
40 -14 40 -9 0 -12 7 -9 20 3 11 14 20 24 20 15 0 19 -7 19 -35z m3697 9 c-9
-9 -28 6 -21 18 4 6 10 6 17 -1 6 -6 8 -13 4 -17z m93 16 c0 -5 -4 -10 -10
-10 -5 0 -10 5 -10 10 0 6 5 10 10 10 6 0 10 -4 10 -10z m-3400 -20 c0 -13 -7
-20 -20 -20 -13 0 -20 7 -20 20 0 13 7 20 20 20 13 0 20 -7 20 -20z m3130 0
c0 -5 -4 -10 -10 -10 -5 0 -10 5 -10 10 0 6 5 10 10 10 6 0 10 -4 10 -10z
m120 6 c0 -11 -19 -15 -25 -6 -3 5 1 10 9 10 9 0 16 -2 16 -4z m-3160 -31 c0
-16 -6 -25 -15 -25 -9 0 -15 9 -15 25 0 16 6 25 15 25 9 0 15 -9 15 -25z
m3272 3 c-12 -12 -35 -1 -27 12 3 5 13 6 21 3 10 -4 12 -9 6 -15z m-172 -8 c0
-5 -7 -10 -15 -10 -8 0 -15 5 -15 10 0 6 7 10 15 10 8 0 15 -4 15 -10z m-1243
-22 c-3 -8 -6 -5 -6 6 -1 11 2 17 5 13 3 -3 4 -12 1 -19z m-1987 -19 c0 -15
-4 -19 -16 -15 -9 3 -20 6 -25 6 -5 0 -9 7 -9 15 0 9 9 15 25 15 19 0 25 -5
25 -21z m3290 6 c0 -8 -7 -15 -15 -15 -16 0 -20 12 -8 23 11 12 23 8 23 -8z
m-120 -5 c0 -5 -4 -10 -10 -10 -5 0 -10 5 -10 10 0 6 5 10 10 10 6 0 10 -4 10
-10z m180 0 c0 -5 -4 -10 -10 -10 -5 0 -10 5 -10 10 0 6 5 10 10 10 6 0 10 -4
10 -10z m-3258 -12 c-7 -7 -12 -28 -12 -47 0 -27 -3 -32 -10 -21 -8 12 -10 9
-10 -13 0 -24 -4 -28 -22 -25 -33 4 -32 52 1 56 20 3 22 8 17 33 -5 26 -3 29
21 29 21 0 24 -3 15 -12z m3188 -26 c0 -13 -12 -22 -22 -16 -10 6 -1 24 13 24
5 0 9 -4 9 -8z m-150 -22 c0 -5 -4 -10 -9 -10 -6 0 -13 5 -16 10 -3 6 1 10 9
10 9 0 16 -4 16 -10z m-50 -40 c0 -5 -2 -10 -4 -10 -3 0 -8 5 -11 10 -3 6 -1
10 4 10 6 0 11 -4 11 -10z m108 -1 c-2 -6 -8 -10 -13 -10 -5 0 -11 4 -13 10
-2 6 4 11 13 11 9 0 15 -5 13 -11z m-198 -9 c0 -5 -4 -10 -10 -10 -5 0 -10 5
-10 10 0 6 5 10 10 10 6 0 10 -4 10 -10z m-1353 -32 c-3 -8 -6 -5 -6 6 -1 11
2 17 5 13 3 -3 4 -12 1 -19z m-737 8 c0 -2 -9 -6 -20 -9 -11 -3 -20 -1 -20 4
0 5 9 9 20 9 11 0 20 -2 20 -4z m75 -14 c-3 -3 -11 0 -18 7 -9 10 -8 11 6 5
10 -3 15 -9 12 -12z m1915 8 c0 -5 -4 -10 -10 -10 -5 0 -10 5 -10 10 0 6 5 10
10 10 6 0 10 -4 10 -10z m157 -26 c-9 -9 -28 6 -21 18 4 6 10 6 17 -1 6 -6 8
-13 4 -17z m73 6 c0 -5 -4 -10 -10 -10 -5 0 -10 5 -10 10 0 6 5 10 10 10 6 0
10 -4 10 -10z m-170 -10 c0 -5 -4 -10 -10 -10 -5 0 -10 5 -10 10 0 6 5 10 10
10 6 0 10 -4 10 -10z m-145 -29 c3 -5 1 -12 -5 -16 -5 -3 -10 1 -10 9 0 18 6
21 15 7z m95 -1 c0 -5 -4 -10 -9 -10 -6 0 -13 5 -16 10 -3 6 1 10 9 10 9 0 16
-4 16 -10z m90 -16 c0 -8 -5 -12 -10 -9 -6 4 -8 11 -5 16 9 14 15 11 15 -7z
m60 2 c0 -11 -19 -15 -25 -6 -3 5 1 10 9 10 9 0 16 -2 16 -4z m-200 -16 c0 -5
-4 -10 -10 -10 -5 0 -10 5 -10 10 0 6 5 10 10 10 6 0 10 -4 10 -10z m100 -6
c0 -8 -5 -12 -10 -9 -6 4 -8 11 -5 16 9 14 15 11 15 -7z m-180 -8 c0 -3 -4 -8
-10 -11 -5 -3 -10 -1 -10 4 0 6 5 11 10 11 6 0 10 -2 10 -4z m-75 -16 c3 -5 1
-10 -4 -10 -6 0 -11 5 -11 10 0 6 2 10 4 10 3 0 8 -4 11 -10z m195 -5 c0 -8
-4 -15 -10 -15 -5 0 -10 7 -10 15 0 8 5 15 10 15 6 0 10 -7 10 -15z m-1053 -1
c-3 -3 -12 -4 -19 -1 -8 3 -5 6 6 6 11 1 17 -2 13 -5z m1120 -20 c-9 -9 -28 6
-21 18 4 6 10 6 17 -1 6 -6 8 -13 4 -17z m-147 6 c0 -5 -4 -10 -10 -10 -5 0
-10 5 -10 10 0 6 5 10 10 10 6 0 10 -4 10 -10z m-50 -30 c0 -5 -5 -10 -11 -10
-5 0 -7 5 -4 10 3 6 8 10 11 10 2 0 4 -4 4 -10z m-50 -10 c0 -5 -4 -10 -10
-10 -5 0 -10 5 -10 10 0 6 5 10 10 10 6 0 10 -4 10 -10z m180 1 c0 -6 -4 -13
-10 -16 -5 -3 -10 1 -10 9 0 9 5 16 10 16 6 0 10 -4 10 -9z m-283 -23 c-3 -8
-6 -5 -6 6 -1 11 2 17 5 13 3 -3 4 -12 1 -19z m203 7 c0 -8 -4 -15 -10 -15 -5
0 -10 7 -10 15 0 8 5 15 10 15 6 0 10 -7 10 -15z m-150 -31 c0 -8 -4 -12 -10
-9 -5 3 -10 10 -10 16 0 5 5 9 10 9 6 0 10 -7 10 -16z m100 1 c0 -8 -4 -15
-10 -15 -5 0 -10 7 -10 15 0 8 5 15 10 15 6 0 10 -7 10 -15z m-190 -5 c0 -5
-4 -10 -10 -10 -5 0 -10 5 -10 10 0 6 5 10 10 10 6 0 10 -4 10 -10z m47 -36
c-9 -9 -28 6 -21 18 4 6 10 6 17 -1 6 -6 8 -13 4 -17z m193 16 c0 -5 -4 -10
-10 -10 -5 0 -10 5 -10 10 0 6 5 10 10 10 6 0 10 -4 10 -10z m-88 -15 c0 -5
-5 -11 -11 -13 -6 -2 -11 4 -11 13 0 9 5 15 11 13 6 -2 11 -8 11 -13z m-152
-36 c0 -11 -4 -17 -10 -14 -5 3 -10 13 -10 21 0 8 5 14 10 14 6 0 10 -9 10
-21z m92 -21 c-9 -9 -12 -7 -12 12 0 19 3 21 12 12 9 -9 9 -15 0 -24z m58 12
c0 -5 -4 -10 -10 -10 -5 0 -10 5 -10 10 0 6 5 10 10 10 6 0 10 -4 10 -10z
m-250 -26 c0 -8 -4 -12 -10 -9 -5 3 -10 10 -10 16 0 5 5 9 10 9 6 0 10 -7 10
-16z m60 -25 c0 -5 -4 -9 -10 -9 -5 0 -10 7 -10 16 0 8 5 12 10 9 6 -3 10 -10
10 -16z m45 1 c-3 -5 -10 -10 -16 -10 -5 0 -9 5 -9 10 0 6 7 10 16 10 8 0 12
-4 9 -10z m65 0 c0 -5 -4 -10 -9 -10 -6 0 -13 5 -16 10 -3 6 1 10 9 10 9 0 16
-4 16 -10z m-210 -20 c0 -5 -4 -10 -10 -10 -5 0 -10 5 -10 10 0 6 5 10 10 10
6 0 10 -4 10 -10z m45 0 c3 -5 1 -10 -4 -10 -6 0 -11 5 -11 10 0 6 2 10 4 10
3 0 8 -4 11 -10z m-2795 -10 c0 -5 -5 -10 -11 -10 -5 0 -7 5 -4 10 3 6 8 10
11 10 2 0 4 -4 4 -10z m40 -10 c0 -5 -4 -10 -9 -10 -6 0 -13 5 -16 10 -3 6 1
10 9 10 9 0 16 -4 16 -10z m2805 0 c3 -5 1 -10 -4 -10 -6 0 -11 5 -11 10 0 6
2 10 4 10 3 0 8 -4 11 -10z m45 -16 c0 -8 -4 -12 -10 -9 -5 3 -10 10 -10 16 0
5 5 9 10 9 6 0 10 -7 10 -16z m-2896 0 c9 -3 14 -10 11 -14 -3 -5 -1 -11 5
-15 5 -3 10 -15 10 -26 0 -14 -7 -19 -29 -19 -20 0 -30 -6 -34 -20 -3 -12 -14
-20 -26 -20 -14 0 -21 -6 -21 -20 0 -11 -6 -20 -13 -20 -7 0 -17 -10 -22 -22
-6 -13 -20 -24 -32 -26 -13 -2 -23 -10 -23 -18 0 -8 -6 -14 -14 -14 -8 0 -18
-9 -21 -20 -7 -22 -22 -25 -44 -11 -12 8 -9 14 15 34 72 61 104 95 104 110 0
10 8 17 20 17 11 0 20 6 20 13 1 16 35 57 49 57 6 0 11 9 11 20 0 21 8 24 34
14z m2266 -16 c0 -18 -2 -20 -9 -8 -6 8 -7 18 -5 22 9 14 14 9 14 -14z m535 2
c3 -5 1 -10 -4 -10 -6 0 -11 5 -11 10 0 6 2 10 4 10 3 0 8 -4 11 -10z m-74
-13 c-1 -12 -15 -9 -19 4 -3 6 1 10 8 8 6 -3 11 -8 11 -12z m-1528 -4 c-7 -2
-21 -2 -30 0 -10 3 -4 5 12 5 17 0 24 -2 18 -5z m1417 3 c0 -3 -4 -8 -10 -11
-5 -3 -10 -1 -10 4 0 6 5 11 10 11 6 0 10 -2 10 -4z m190 -26 c0 -5 -4 -10
-10 -10 -5 0 -10 5 -10 10 0 6 5 10 10 10 6 0 10 -4 10 -10z m-70 -40 c0 -5
-4 -10 -9 -10 -6 0 -13 5 -16 10 -3 6 1 10 9 10 9 0 16 -4 16 -10z m-85 -20
c3 -5 1 -10 -4 -10 -6 0 -11 5 -11 10 0 6 2 10 4 10 3 0 8 -4 11 -10z m-41
-51 c-3 -5 -10 -7 -15 -3 -5 3 -7 10 -3 15 3 5 10 7 15 3 5 -3 7 -10 3 -15z
m572 -26 c-10 -10 -19 5 -10 18 6 11 8 11 12 0 2 -7 1 -15 -2 -18z m-756 -93
c0 -5 -4 -10 -10 -10 -5 0 -10 5 -10 10 0 6 5 10 10 10 6 0 10 -4 10 -10z
m-2696 -8 c10 -16 -7 -52 -24 -52 -17 0 -34 43 -22 55 8 8 40 6 46 -3z m36 -7
c0 -8 -2 -15 -4 -15 -2 0 -6 7 -10 15 -3 8 -1 15 4 15 6 0 10 -7 10 -15z
m2570 -25 c0 -5 -7 -10 -16 -10 -8 0 -12 5 -9 10 3 6 10 10 16 10 5 0 9 -4 9
-10z m580 -20 c0 -5 -4 -10 -10 -10 -5 0 -10 5 -10 10 0 6 5 10 10 10 6 0 10
-4 10 -10z m-3250 -15 c0 -8 -10 -20 -22 -26 -13 -7 -26 -17 -30 -23 -4 -6
-10 -8 -13 -4 -3 3 0 12 8 19 7 8 16 22 20 32 8 21 37 23 37 2z m3170 -35 c0
-5 -4 -10 -10 -10 -5 0 -10 5 -10 10 0 6 5 10 10 10 6 0 10 -4 10 -10z m-710
-24 c0 -3 -4 -8 -10 -11 -5 -3 -10 -1 -10 4 0 6 5 11 10 11 6 0 10 -2 10 -4z
m-2516 -21 c-4 -8 -10 -12 -15 -9 -11 6 -2 24 11 24 5 0 7 -7 4 -15z"/>
<path d="M5548 7103 c12 -2 30 -2 40 0 9 3 -1 5 -23 4 -22 0 -30 -2 -17 -4z"/>
<path d="M4818 6973 c18 -2 45 -2 60 0 15 2 0 4 -33 4 -33 0 -45 -2 -27 -4z"/>
<path d="M3818 6513 c7 -3 16 -2 19 1 4 3 -2 6 -13 5 -11 0 -14 -3 -6 -6z"/>
<path d="M7602 6370 c0 -14 2 -19 5 -12 2 6 2 18 0 25 -3 6 -5 1 -5 -13z"/>
<path d="M7624 6334 c3 -8 6 -18 6 -20 0 -2 5 -4 10 -4 16 0 11 27 -6 34 -12
5 -15 2 -10 -10z"/>
<path d="M5060 6580 c0 -5 5 -10 10 -10 6 0 10 5 10 10 0 6 -4 10 -10 10 -5 0
-10 -4 -10 -10z"/>
<path d="M4962 6524 c4 -21 22 -23 26 -1 2 10 -3 17 -13 17 -10 0 -15 -6 -13
-16z"/>
<path d="M4680 6300 c-12 -8 -12 -10 3 -16 21 -8 35 2 21 16 -5 5 -15 6 -24 0z"/>
<path d="M4590 6220 c0 -5 5 -10 11 -10 5 0 7 -4 4 -10 -3 -5 -1 -10 4 -10 13
0 13 3 5 24 -7 18 -24 22 -24 6z"/>
<path d="M4468 6123 c7 -3 16 -2 19 1 4 3 -2 6 -13 5 -11 0 -14 -3 -6 -6z"/>
<path d="M4471 6024 c0 -11 3 -14 6 -6 3 7 2 16 -1 19 -3 4 -6 -2 -5 -13z"/>
<path d="M6628 5773 c7 -3 16 -2 19 1 4 3 -2 6 -13 5 -11 0 -14 -3 -6 -6z"/>
<path d="M6530 5334 c0 -8 5 -12 10 -9 6 4 8 11 5 16 -9 14 -15 11 -15 -7z"/>
<path d="M6230 5300 c0 -11 5 -20 10 -20 6 0 10 9 10 20 0 11 -4 20 -10 20 -5
0 -10 -9 -10 -20z"/>
<path d="M5372 4178 c2 -6 10 -14 16 -16 7 -2 10 2 6 12 -7 18 -28 22 -22 4z"/>
<path d="M5110 3710 c0 -5 7 -10 16 -10 8 0 12 5 9 10 -3 6 -10 10 -16 10 -5
0 -9 -4 -9 -10z"/>
<path d="M4288 3373 c6 -2 18 -2 25 0 6 3 1 5 -13 5 -14 0 -19 -2 -12 -5z"/>
<path d="M5297 4713 c-3 -5 -1 -17 4 -28 6 -17 7 -16 6 8 -1 28 -3 32 -10 20z"/>
<path d="M5228 4593 c6 -2 18 -2 25 0 6 3 1 5 -13 5 -14 0 -19 -2 -12 -5z"/>
<path d="M4685 3983 c-12 -2 -26 -13 -33 -23 -11 -17 -10 -20 8 -20 11 0 20 5
20 10 0 6 9 10 19 10 23 0 36 16 18 22 -6 2 -21 2 -32 1z"/>
<path d="M4643 3923 c9 -2 23 -2 30 0 6 3 -1 5 -18 5 -16 0 -22 -2 -12 -5z"/>
<path d="M4185 3760 c-19 -8 -19 -9 3 -9 12 -1 22 4 22 9 0 6 -1 10 -2 9 -2 0
-12 -4 -23 -9z"/>
<path d="M3760 5325 c0 -8 2 -15 4 -15 2 0 6 7 10 15 3 8 1 15 -4 15 -6 0 -10
-7 -10 -15z"/>
<path d="M6710 5302 c0 -5 7 -9 15 -9 8 0 15 4 15 9 0 4 -7 8 -15 8 -8 0 -15
-4 -15 -8z"/>
<path d="M6630 5219 c0 -5 5 -7 10 -4 6 3 10 8 10 11 0 2 -4 4 -10 4 -5 0 -10
-5 -10 -11z"/>
<path d="M2432 4348 c6 -18 28 -21 28 -4 0 9 -7 16 -16 16 -9 0 -14 -5 -12
-12z"/>
<path d="M2430 4272 l0 -48 37 3 c20 1 40 6 45 11 14 14 -2 42 -23 42 -10 0
-18 3 -18 8 4 22 -3 32 -21 32 -17 0 -20 -7 -20 -48z"/>
<path d="M2530 4035 c0 -8 5 -15 10 -15 6 0 10 7 10 15 0 8 -4 15 -10 15 -5 0
-10 -7 -10 -15z"/>
<path d="M2570 3995 c0 -8 4 -15 8 -15 5 0 9 7 9 15 0 8 -4 15 -9 15 -4 0 -8
-7 -8 -15z"/>
<path d="M2600 3960 c0 -5 5 -10 11 -10 5 0 7 5 4 10 -3 6 -8 10 -11 10 -2 0
-4 -4 -4 -10z"/>
<path d="M2688 3943 c7 -3 16 -2 19 1 4 3 -2 6 -13 5 -11 0 -14 -3 -6 -6z"/>
<path d="M2660 3930 c0 -5 5 -10 11 -10 5 0 7 5 4 10 -3 6 -8 10 -11 10 -2 0
-4 -4 -4 -10z"/>
<path d="M4490 4440 c0 -27 3 -30 30 -30 27 0 30 3 30 30 0 27 -3 30 -30 30
-27 0 -30 -3 -30 -30z"/>
<path d="M4570 4200 c0 -27 3 -30 30 -30 27 0 30 3 30 30 0 27 -3 30 -30 30
-27 0 -30 -3 -30 -30z"/>
<path d="M4560 4120 l0 -40 40 0 40 0 0 40 0 40 -40 0 -40 0 0 -40z"/>
</g>
</svg>
